<?xml version="1.0" encoding="utf-8"?>
<!-- Generator: Adobe Illustrator 25.2.0, SVG Export Plug-In . SVG Version: 6.00 Build 0)  -->
<svg version="1.1" id="Ebene_1" xmlns="http://www.w3.org/2000/svg" xmlns:xlink="http://www.w3.org/1999/xlink" x="0px" y="0px"
	 viewBox="0 0 1396 1024" style="enable-background:new 0 0 1396 1024;" xml:space="preserve">
<style type="text/css">
	.st0{fill:#202933;}
	.st1{font-family:'Arial-BoldMT';}
	.st2{font-size:107.7785px;}
	.st3{font-size:234.7311px;}
	.st4{fill:url(#SVGID_1_);}
	.st5{fill:url(#SVGID_2_);}
	.st6{fill:url(#SVGID_3_);}
	.st7{fill:url(#SVGID_4_);}
	.st8{fill:url(#SVGID_5_);}
	.st9{fill:url(#SVGID_6_);}
	.st10{fill:url(#SVGID_7_);}
	.st11{fill:url(#SVGID_8_);}
	.st12{fill:url(#SVGID_9_);}
	.st13{fill:url(#SVGID_10_);}
	.st14{fill:url(#SVGID_11_);}
</style>
<g>
	<g>
		<g>
			<path class="st0" d="M1076.1,328.7C1001.9,151.2,829.7,36.5,637.2,36.5c-104,0-202.9,33-285.8,95.4c-9.3-2.4-19.2-4.6-29.4-6.6
				l-0.8-0.2c43.5-35.6,92.2-63.4,144.8-82.5c54.8-20,112.4-30.1,171.2-30.1c101.7,0,199.5,30.4,282.9,87.8
				c81.3,56,143.7,133.7,180.5,224.9C1092.5,326.2,1084.3,327.4,1076.1,328.7z"/>
			<path d="M637.2,13c101.6,0,199.3,30.3,282.6,87.7c40.2,27.6,76,61,106.6,99c30.5,38,55.3,80.1,73.5,125.1
				c-7.8,1-15.7,2.1-23.5,3.3C1002,150.6,829.7,36,637.2,36c-104.1,0-202.9,33-285.9,95.4c-9.1-2.4-18.9-4.6-29-6.5
				c43.3-35.2,91.6-62.7,143.8-81.8C520.9,23.1,578.5,13,637.2,13 M637.2,12c-120.4,0-230.9,42.6-317.2,113.5l1.9,0.4
				c10.4,2,20.3,4.2,29.6,6.6C431.1,72.5,530,37,637.2,37c197.6,0,367,120.6,438.6,292.2c8.5-1.4,17-2.6,25.5-3.6
				C1027.4,141.8,847.5,12,637.2,12L637.2,12z"/>
		</g>
		<g>
			<path class="st0" d="M637.2,1011.5c-98.6,0-194-28.7-275.9-83c-79.5-52.8-142-126.6-180.7-213.6l29.1,5.5
				c80.5,164.7,244.2,267,427.5,267c142.6,0,276.4-63.2,367.2-173.4c0.9,0.5,1.7,1,2.5,1.4c4.8,2.4,10.2,3.7,15.8,3.7l0.5,0
				c0.9,0,1.8,0,2.7,0c1.6,0,3.4,0,5.3,0.1C985.5,877.7,926.4,926,860.3,959C790.7,993.8,715.6,1011.5,637.2,1011.5z"/>
			<path d="M181.5,715.6l27.9,5.3C290,885.7,453.9,988,637.2,988c142.6,0,276.5-63.1,367.3-173.3c0.7,0.4,1.4,0.8,2.1,1.2
				c4.8,2.5,10.4,3.8,16,3.8l0.5,0c0.9,0,1.7,0,2.6,0c1.3,0,2.7,0,4.3,0.1c-22.5,28.7-48.2,54.9-76.3,78.1
				c-28.8,23.7-60.3,44.1-93.6,60.8c-33.9,16.9-69.7,30-106.6,38.8c-37.9,9-77,13.6-116.3,13.6c-98.5,0-193.8-28.7-275.6-82.9
				c-39.4-26.2-74.9-57.8-105.5-93.9C225.8,798.2,200.7,758.4,181.5,715.6 M179.8,714.3C257.5,889.6,433.1,1012,637.2,1012
				c160.5,0,303.4-75.6,394.9-193.2c-2.1-0.1-4.2-0.1-6.3-0.1c-0.9,0-1.8,0-2.7,0l-0.5,0c-5.5,0-10.9-1.3-15.6-3.7
				c-1-0.5-1.9-1-2.8-1.6C917.2,919.4,785.1,987,637.2,987c-187.7,0-350-108.9-427.1-267L179.8,714.3L179.8,714.3z"/>
		</g>
	</g>
	<path class="st0" d="M13.8,652.1l101.8-535l200.7,38.2c40.9,7.8,72.6,19.4,95.3,35c22.6,15.5,38.8,35.9,48.5,61
		c9.7,25.2,12.2,50,7.5,74.6c-4.4,22.9-14.7,43.2-30.9,61.1c-16.3,17.8-38.1,30.6-65.5,38.2c30.6,15.6,52.4,36.6,65.4,62.7
		c13,26.2,16.6,54.8,10.7,86c-4.8,25.1-14.5,47.4-29.2,66.9s-30.9,33.6-48.7,42.4c-17.8,8.7-39,13.8-63.6,15.3
		c-24.6,1.5-54-1-88-7.5L13.8,652.1z M96.6,602.5l133.2,25.3c22.9,4.4,39.1,6.6,48.7,6.6c16.9,0.2,31.4-2.1,43.7-6.8
		c12.2-4.7,23.1-12.9,32.7-24.6c9.5-11.7,15.9-26,19.2-43.1c3.8-19.9,2-38.3-5.4-54.9c-7.4-16.7-19.6-29.7-36.6-39.1
		c-17-9.4-42.5-17.4-76.6-23.8l-123.7-23.5L96.6,602.5z M143.7,355.4l115.7,22c31.4,6,54.3,8.2,68.7,6.6c19-1.9,34.3-8.2,45.8-18.9
		c11.5-10.7,19-25.4,22.6-44.1c3.4-17.8,2.1-34.2-3.9-49.3c-6-15.1-16.4-26.7-31.2-34.7c-14.9-8-41.5-15.7-80-23l-106.9-20.3
		L143.7,355.4z"/>
	<text transform="matrix(1 0 0 1 498.3198 379.4253)" class="st0 st1 st2">uttstädter</text>
	<text transform="matrix(1.0157 0 0 1 479.5859 699.6318)" class="st0 st1 st3">istro</text>
	<g>
		
			<linearGradient id="SVGID_1_" gradientUnits="userSpaceOnUse" x1="1224.5295" y1="427.6124" x2="1224.5295" y2="1051.1033" gradientTransform="matrix(0.9594 0.282 -0.282 0.9594 183.3474 -504.3537)">
			<stop  offset="0" style="stop-color:#754C24"/>
			<stop  offset="1" style="stop-color:#603813"/>
		</linearGradient>
		<path class="st4" d="M1051.3,870.9l-0.9-0.3L1227.2,269c0.8-2.6,3.5-4.1,6.2-3.4l0,0c2.7,0.8,4.2,3.6,3.3,6.2L1051.3,870.9z"/>
		
			<linearGradient id="SVGID_2_" gradientUnits="userSpaceOnUse" x1="1231.0327" y1="965.6676" x2="1231.0327" y2="1015.1289" gradientTransform="matrix(0.9594 0.282 -0.282 0.9594 183.3474 -504.3537)">
			<stop  offset="0" style="stop-color:#754C24"/>
			<stop  offset="1" style="stop-color:#603813"/>
		</linearGradient>
		<path class="st5" d="M1032.6,753c-1.4-0.5-2.8-0.8-4.2-0.9c-12.1-0.6-23,7.9-25.1,19.5c-1.9,10.3,3.5,20.7,13,25.6
			c2.1,1,4.4,1.5,6.7,1.5c17.2-0.2,42,1.4,70.2,10.3c29.9,9.4,51.9,23.2,65.8,33.4c-6.9-8.6-14.9-17.4-24-26.1
			C1099.8,782.5,1061.8,763.8,1032.6,753z"/>
		
			<linearGradient id="SVGID_3_" gradientUnits="userSpaceOnUse" x1="1218.0262" y1="931.8898" x2="1218.0262" y2="980.4646" gradientTransform="matrix(0.9594 0.282 -0.282 0.9594 183.3474 -504.3537)">
			<stop  offset="0" style="stop-color:#754C24"/>
			<stop  offset="1" style="stop-color:#603813"/>
		</linearGradient>
		<path class="st6" d="M1147.9,752c1.4,0.3,2.8,0.8,4,1.6c10.5,6.1,15.1,19.1,10.6,30c-4,9.6-14.2,15.5-24.7,14.5
			c-2.3-0.2-4.5-1.1-6.4-2.4c-14.3-9.5-36.1-21.5-64.6-29.3c-30.2-8.3-56.2-8.6-73.5-7.5c10.5-3.5,22-6.6,34.3-9
			C1075.5,740.4,1117.6,745.2,1147.9,752z"/>
		
			<linearGradient id="SVGID_4_" gradientUnits="userSpaceOnUse" x1="1232.7421" y1="896.7787" x2="1232.7421" y2="958.1265" gradientTransform="matrix(0.9594 0.282 -0.282 0.9594 183.3474 -504.3537)">
			<stop  offset="0" style="stop-color:#754C24"/>
			<stop  offset="1" style="stop-color:#603813"/>
		</linearGradient>
		<path class="st7" d="M1037.9,683.5c-1.7-0.6-3.5-1-5.3-1.1c-15.3-0.8-29,9.9-31.7,24.6c-2.4,13,4.4,26.2,16.4,32.3
			c2.6,1.3,5.5,1.9,8.4,1.9c21.7-0.3,53,1.8,88.6,13c37.7,11.8,65.6,29.3,83.2,42.2c-8.8-10.8-18.8-22-30.3-33
			C1122.7,720.8,1074.8,697.1,1037.9,683.5z"/>
		
			<linearGradient id="SVGID_5_" gradientUnits="userSpaceOnUse" x1="1216.317" y1="854.5565" x2="1216.317" y2="916.3359" gradientTransform="matrix(0.9594 0.282 -0.282 0.9594 183.3474 -504.3537)">
			<stop  offset="0" style="stop-color:#754C24"/>
			<stop  offset="1" style="stop-color:#603813"/>
		</linearGradient>
		<path class="st8" d="M1183.6,682.2c1.8,0.4,3.5,1.1,5.1,2c13.3,7.6,19.1,24.1,13.4,37.8c-5,12.2-17.9,19.6-31.2,18.3
			c-2.9-0.3-5.7-1.4-8.1-3c-18.1-12-45.6-27.2-81.6-37c-38.1-10.4-71-10.9-92.8-9.5c13.2-4.4,27.7-8.3,43.4-11.4
			C1092.1,667.6,1145.2,673.6,1183.6,682.2z"/>
		
			<linearGradient id="SVGID_6_" gradientUnits="userSpaceOnUse" x1="1234.7622" y1="812.7787" x2="1234.7622" y2="888.7839" gradientTransform="matrix(0.9594 0.282 -0.282 0.9594 183.3474 -504.3537)">
			<stop  offset="0" style="stop-color:#754C24"/>
			<stop  offset="1" style="stop-color:#603813"/>
		</linearGradient>
		<path class="st9" d="M1045.3,597.6c-2.1-0.8-4.4-1.3-6.7-1.4c-19.1-1-36.2,12.4-39.5,30.6c-2.9,16.1,5.5,32.6,20.4,40.2
			c3.2,1.7,6.9,2.4,10.5,2.3c27.1-0.4,66,2.3,110.4,16.2c47,14.8,81.7,36.5,103.6,52.6c-10.9-13.5-23.4-27.4-37.8-41.1
			C1151,644,1091.3,614.5,1045.3,597.6z"/>
		
			<linearGradient id="SVGID_7_" gradientUnits="userSpaceOnUse" x1="1214.2969" y1="759.4454" x2="1214.2969" y2="835.9531" gradientTransform="matrix(0.9594 0.282 -0.282 0.9594 183.3474 -504.3537)">
			<stop  offset="0" style="stop-color:#754C24"/>
			<stop  offset="1" style="stop-color:#603813"/>
		</linearGradient>
		<path class="st10" d="M1226.8,595.9c2.2,0.5,4.4,1.3,6.3,2.5c16.6,9.5,23.7,30,16.7,47.1c-6.3,15.2-22.3,24.4-38.9,22.8
			c-3.6-0.4-7.1-1.7-10.1-3.7c-22.6-14.9-56.8-33.8-101.6-46.1c-47.5-13-88.5-13.6-115.6-11.8c16.5-5.5,34.5-10.3,54-14.2
			C1112.8,577.7,1179,585.2,1226.8,595.9z"/>
		
			<linearGradient id="SVGID_8_" gradientUnits="userSpaceOnUse" x1="1236.7822" y1="706.1121" x2="1236.7822" y2="797.6773" gradientTransform="matrix(0.9594 0.282 -0.282 0.9594 183.3474 -504.3537)">
			<stop  offset="0" style="stop-color:#754C24"/>
			<stop  offset="1" style="stop-color:#603813"/>
		</linearGradient>
		<path class="st11" d="M1058.7,491.5c-2.6-0.9-5.3-1.5-8-1.6c-22.8-1.1-43.3,14.8-47.3,36.7c-3.5,19.3,6.6,39.1,24.4,48.2
			c3.9,2,8.2,2.8,12.6,2.8c32.4-0.4,79.1,2.7,132.2,19.4c56.2,17.7,97.9,43.7,124.1,63c-13.1-16.2-28.1-32.8-45.2-49.3
			C1185.2,547,1113.7,511.7,1058.7,491.5z"/>
		
			<linearGradient id="SVGID_9_" gradientUnits="userSpaceOnUse" x1="1212.2767" y1="643.8898" x2="1212.2767" y2="736.361" gradientTransform="matrix(0.9594 0.282 -0.282 0.9594 183.3474 -504.3537)">
			<stop  offset="0" style="stop-color:#754C24"/>
			<stop  offset="1" style="stop-color:#603813"/>
		</linearGradient>
		<path class="st12" d="M1275.9,489.4c2.7,0.6,5.2,1.6,7.6,2.9c19.8,11.4,28.4,35.9,19.9,56.5c-7.5,18.2-26.7,29.3-46.6,27.3
			c-4.3-0.4-8.4-2.1-12.1-4.5c-27-17.9-68-40.5-121.7-55.2c-56.9-15.6-105.9-16.2-138.4-14.2c19.8-6.5,41.4-12.4,64.7-17
			C1139.5,467.7,1218.7,476.6,1275.9,489.4z"/>
		
			<linearGradient id="SVGID_10_" gradientUnits="userSpaceOnUse" x1="1240.0295" y1="576.3343" x2="1240.0295" y2="693.081" gradientTransform="matrix(0.9594 0.282 -0.282 0.9594 183.3474 -504.3537)">
			<stop  offset="0.4301" style="stop-color:#754C24"/>
			<stop  offset="1" style="stop-color:#603813"/>
		</linearGradient>
		<path class="st13" d="M1068.3,360.8c-3.2-1.2-6.6-1.9-10.1-2.1c-28.9-1.4-54.8,18.7-59.8,46.4c-4.4,24.4,8.4,49.4,30.9,60.9
			c4.9,2.5,10.4,3.6,15.9,3.5c41-0.5,100,3.4,167.3,24.5c71.2,22.3,123.8,55.2,156.9,79.6c-16.6-20.5-35.5-41.5-57.2-62.3
			C1228.4,431.1,1138,386.3,1068.3,360.8z"/>
		
			<linearGradient id="SVGID_11_" gradientUnits="userSpaceOnUse" x1="1211.9911" y1="492.6205" x2="1208.4355" y2="608.1761" gradientTransform="matrix(0.9594 0.282 -0.282 0.9594 183.3474 -504.3537)">
			<stop  offset="0" style="stop-color:#754C24"/>
			<stop  offset="1" style="stop-color:#603813"/>
		</linearGradient>
		<path class="st14" d="M1343.2,358.2c3.4,0.8,6.6,2,9.6,3.7c25.1,14.4,36,45.4,25.2,71.4c-9.5,23-33.8,37-59,34.5
			c-5.5-0.5-10.7-2.6-15.3-5.6c-34.2-22.6-86-51.3-153.9-69.9c-71.9-19.7-134-20.5-175.1-17.9c25-8.3,52.3-15.7,81.9-21.4
			C1170.6,330.7,1270.8,342,1343.2,358.2z"/>
	</g>
</g>
</svg>
